<svg width="150" height="150" viewBox="0 0 150 150" fill="none" xmlns="http://www.w3.org/2000/svg">
<path d="M60 37.5029C60 35.5139 59.2098 33.6063 57.8033 32.1998C56.3968 30.7933 54.4891 30.0031 52.5 30.0031H48.75V18.7534C48.8011 16.2772 48.351 13.8162 47.4268 11.5183C46.5026 9.22043 45.1234 7.13311 43.372 5.38177C41.6206 3.63044 39.5332 2.25125 37.2353 1.32708C34.9374 0.402907 32.4763 -0.0471655 30 0.00390729C27.5237 -0.0471655 25.0626 0.402907 22.7647 1.32708C20.4668 2.25125 18.3794 3.63044 16.628 5.38177C14.8766 7.13311 13.4974 9.22043 12.5732 11.5183C11.649 13.8162 11.1989 16.2772 11.25 18.7534V30.0031H7.5C5.51088 30.0031 3.60322 30.7933 2.1967 32.1998C0.790176 33.6063 0 35.5139 0 37.5029L0 67.5021C0 69.4912 0.790176 71.3988 2.1967 72.8053C3.60322 74.2118 5.51088 75.002 7.5 75.002H52.5C54.4891 75.002 56.3968 74.2118 57.8033 72.8053C59.2098 71.3988 60 69.4912 60 67.5021V37.5029ZM30 60.0023C28.5166 60.0023 27.0666 59.5625 25.8332 58.7384C24.5999 57.9143 23.6386 56.743 23.0709 55.3726C22.5032 54.0022 22.3547 52.4942 22.6441 51.0394C22.9335 49.5846 23.6478 48.2482 24.6967 47.1994C25.7456 46.1505 27.082 45.4362 28.5368 45.1468C29.9917 44.8575 31.4997 45.006 32.8701 45.5736C34.2406 46.1413 35.4119 47.1025 36.236 48.3359C37.0601 49.5692 37.5 51.0192 37.5 52.5025C37.5 54.4916 36.7098 56.3992 35.3033 57.8057C33.8968 59.2122 31.9891 60.0023 30 60.0023ZM41.25 30.0031H18.75V20.6284C18.75 15.0035 18.75 7.50371 30 7.50371C41.25 7.50371 41.25 15.0035 41.25 20.6284V30.0031ZM75 45.0027V75.002C75 78.9801 73.4196 82.7953 70.6066 85.6083C67.7936 88.4213 63.9782 90.0016 60 90.0016H15V135C15 138.979 16.5804 142.794 19.3934 145.607C22.2064 148.42 26.0218 150 30 150H135C138.978 150 142.794 148.42 145.607 145.607C148.42 142.794 150 138.979 150 135V60.0023C150 56.0242 148.42 52.209 145.607 49.396C142.794 46.583 138.978 45.0027 135 45.0027H75ZM30 127.501L56.55 93.7515L75.525 116.251L102.075 82.5018L136.275 127.501H30Z" fill="#DBDBDB"/>
</svg>
